<?xml version="1.0" encoding="UTF-8"?>
<!DOCTYPE svg PUBLIC "-//W3C//DTD SVG 1.1//EN" "http://www.w3.org/Graphics/SVG/1.1/DTD/svg11.dtd">
<svg xmlns="http://www.w3.org/2000/svg" version="1.1" width="1600px" height="1120px" style="shape-rendering:geometricPrecision; text-rendering:geometricPrecision; image-rendering:optimizeQuality; fill-rule:evenodd; clip-rule:evenodd" xmlns:xlink="http://www.w3.org/1999/xlink">
<g><path style="opacity:1" fill="#009b39" d="M -0.5,-0.5 C 532.833,-0.5 1066.17,-0.5 1599.5,-0.5C 1599.5,372.833 1599.5,746.167 1599.5,1119.5C 1066.17,1119.5 532.833,1119.5 -0.5,1119.5C -0.5,746.167 -0.5,372.833 -0.5,-0.5 Z"/></g>
<g><path style="opacity:1" fill="#fdde00" d="M 798.5,135.5 C 1020.15,276.327 1241.49,417.66 1462.5,559.5C 1241.71,701.069 1020.71,842.402 799.5,983.5C 578.33,842.416 357.33,701.083 136.5,559.5C 357.231,418.142 577.898,276.809 798.5,135.5 Z"/></g>
<g><path style="opacity:1" fill="#012776" d="M 1076.5,598.5 C 936.071,483.527 774.737,431.027 592.5,441C 577.59,441.756 562.757,443.256 548,445.5C 546.615,445.486 545.449,445.152 544.5,444.5C 574.261,380.905 620.928,334.072 684.5,304C 772.436,267.253 858.103,271.92 941.5,318C 1035.13,377.407 1080.96,462.907 1079,574.5C 1078.36,582.535 1077.53,590.535 1076.5,598.5 Z"/></g>
<g><path style="opacity:1" fill="#f9fbfb" d="M 1076.5,598.5 C 1074.81,613.653 1071.47,628.319 1066.5,642.5C 935.682,528.604 783.015,474.438 608.5,480C 581.712,481.784 555.045,484.617 528.5,488.5C 532.194,473.137 537.527,458.47 544.5,444.5C 545.449,445.152 546.615,445.486 548,445.5C 562.757,443.256 577.59,441.756 592.5,441C 774.737,431.027 936.071,483.527 1076.5,598.5 Z"/></g>
<g><path style="opacity:1" fill="#159e41" d="M 616.5,446.5 C 621.844,446.334 627.177,446.501 632.5,447C 634.96,448.458 637.127,450.291 639,452.5C 639.667,457.167 639.667,461.833 639,466.5C 636.851,470.156 633.684,472.156 629.5,472.5C 625.167,472.5 620.833,472.5 616.5,472.5C 616.5,463.833 616.5,455.167 616.5,446.5 Z"/></g>
<g><path style="opacity:1" fill="#1ca045" d="M 650.5,446.5 C 658.167,446.5 665.833,446.5 673.5,446.5C 673.5,448.167 673.5,449.833 673.5,451.5C 667.5,451.5 661.5,451.5 655.5,451.5C 655.5,453.167 655.5,454.833 655.5,456.5C 660.5,456.5 665.5,456.5 670.5,456.5C 670.5,458.167 670.5,459.833 670.5,461.5C 665.167,461.5 659.833,461.5 654.5,461.5C 654.5,463.833 654.5,466.167 654.5,468.5C 661.167,468.5 667.833,468.5 674.5,468.5C 674.5,470.167 674.5,471.833 674.5,473.5C 666.5,473.5 658.5,473.5 650.5,473.5C 650.5,464.5 650.5,455.5 650.5,446.5 Z"/></g>
<g><path style="opacity:1" fill="#23a147" d="M 585.5,447.5 C 590.179,447.334 594.845,447.501 599.5,448C 606.538,452.186 607.205,457.186 601.5,463C 604.1,465.984 605.1,469.484 604.5,473.5C 603.167,473.5 601.833,473.5 600.5,473.5C 600.207,464.699 595.874,462.032 587.5,465.5C 587.5,468.833 587.5,472.167 587.5,475.5C 585.833,475.5 584.167,475.5 582.5,475.5C 581.893,466.513 581.56,457.513 581.5,448.5C 583.099,448.768 584.432,448.434 585.5,447.5 Z"/></g>
<g><path style="opacity:1" fill="#21a147" d="M 685.5,447.5 C 688.119,447.232 690.619,447.565 693,448.5C 694.207,454.201 695.54,459.868 697,465.5C 698.804,460.42 700.804,455.42 703,450.5C 705.041,449.577 707.208,449.244 709.5,449.5C 709.119,458.498 708.786,467.498 708.5,476.5C 706.833,476.5 705.167,476.5 703.5,476.5C 705.84,455.52 704.173,455.186 698.5,475.5C 696.833,475.5 695.167,475.5 693.5,475.5C 692.656,469.449 691.49,463.449 690,457.5C 689.096,463.135 688.596,468.802 688.5,474.5C 687.167,474.5 685.833,474.5 684.5,474.5C 684.56,465.487 684.893,456.487 685.5,447.5 Z"/></g>
<g><path style="opacity:1" fill="#1fa146" d="M 554.5,451.5 C 567.723,451.284 572.89,457.618 570,470.5C 565.225,478.12 559.058,479.453 551.5,474.5C 547.687,469.85 546.52,464.516 548,458.5C 549.694,455.642 551.861,453.309 554.5,451.5 Z"/></g>
<g><path style="opacity:1" fill="#f4fbf6" d="M 620.5,451.5 C 631.143,448.996 635.976,452.996 635,463.5C 634.167,464.5 633.333,465.5 632.5,466.5C 628.571,467.433 624.571,467.766 620.5,467.5C 620.5,462.167 620.5,456.833 620.5,451.5 Z"/></g>
<g><path style="opacity:1" fill="#f5fbf7" d="M 586.5,452.5 C 590.182,452.335 593.848,452.501 597.5,453C 600.167,455 600.167,457 597.5,459C 593.848,459.499 590.182,459.665 586.5,459.5C 586.5,457.167 586.5,454.833 586.5,452.5 Z"/></g>
<g><path style="opacity:1" fill="#fafdfb" d="M 555.5,456.5 C 564.431,456.312 567.598,460.646 565,469.5C 560.694,473.675 556.694,473.342 553,468.5C 551.773,463.938 552.607,459.938 555.5,456.5 Z"/></g>
<g><path style="opacity:1" fill="#25a249" d="M 742.5,457.5 C 749.167,458.167 755.833,458.833 762.5,459.5C 762.5,461.167 762.5,462.833 762.5,464.5C 757.137,464.051 751.804,463.384 746.5,462.5C 746.5,463.833 746.5,465.167 746.5,466.5C 749.813,467.045 753.146,467.545 756.5,468C 758.107,469.049 758.773,470.549 758.5,472.5C 754.108,471.912 749.774,471.912 745.5,472.5C 744.691,474.071 744.357,475.738 744.5,477.5C 748.897,477.425 753.23,477.925 757.5,479C 759.107,480.049 759.773,481.549 759.5,483.5C 752.86,483.198 746.36,482.198 740,480.5C 740.592,472.848 741.425,465.181 742.5,457.5 Z"/></g>
<g><path style="opacity:1" fill="#e7eaf2" d="M 885.5,461.5 C 887.448,463.32 888.448,465.654 888.5,468.5C 891.518,468.335 894.518,468.502 897.5,469C 895.391,470.141 893.558,471.641 892,473.5C 891.93,476.593 892.264,479.593 893,482.5C 891.104,480.47 888.937,478.803 886.5,477.5C 884.5,478.833 882.5,480.167 880.5,481.5C 880.167,481.167 879.833,480.833 879.5,480.5C 880.752,478.265 881.252,475.931 881,473.5C 879.075,472.12 877.241,470.62 875.5,469C 881.993,470.338 885.327,467.838 885.5,461.5 Z"/></g>
<g><path style="opacity:1" fill="#1ea045" d="M 796.5,464.5 C 802.603,466.02 808.603,467.853 814.5,470C 818.715,474.958 818.381,479.625 813.5,484C 807.725,484.689 802.058,484.189 796.5,482.5C 796.386,485.994 795.22,488.994 793,491.5C 791.605,491.22 790.438,490.553 789.5,489.5C 792.041,481.212 794.374,472.879 796.5,464.5 Z"/></g>
<g><path style="opacity:1" fill="#f3faf6" d="M 799.5,471.5 C 803.622,471.697 807.622,472.53 811.5,474C 813.426,477.79 812.26,479.623 808,479.5C 805.069,479.225 802.235,478.559 799.5,477.5C 798.481,475.54 798.481,473.54 799.5,471.5 Z"/></g>
<g><path style="opacity:1" fill="#82ce9e" d="M 616.5,446.5 C 616.5,455.167 616.5,463.833 616.5,472.5C 620.833,472.5 625.167,472.5 629.5,472.5C 625.03,473.486 620.363,473.819 615.5,473.5C 615.173,464.318 615.507,455.318 616.5,446.5 Z"/></g>
<g><path style="opacity:1" fill="#1ca045" d="M 830.5,474.5 C 835.954,475.483 841.287,476.983 846.5,479C 852.069,482.514 852.902,487.014 849,492.5C 848,493.167 847,493.833 846,494.5C 845.58,498.191 845.08,501.858 844.5,505.5C 842.335,505.884 840.668,505.217 839.5,503.5C 840.748,500.506 840.748,497.506 839.5,494.5C 836.273,493.091 832.94,492.091 829.5,491.5C 828.833,494.5 828.167,497.5 827.5,500.5C 825.516,500.617 823.85,499.95 822.5,498.5C 825.372,490.55 828.039,482.55 830.5,474.5 Z"/></g>
<g><path style="opacity:1" fill="#012776" d="M 1066.5,642.5 C 1040,723.833 987.672,781.999 909.5,817C 810.192,855.628 717.192,844.294 630.5,783C 547.573,715.622 511.406,628.455 522,521.5C 523.722,510.39 525.889,499.39 528.5,488.5C 555.045,484.617 581.712,481.784 608.5,480C 783.015,474.438 935.682,528.604 1066.5,642.5 Z"/></g>
<g><path style="opacity:1" fill="#f7fcf9" d="M 833.5,480.5 C 837.622,481.151 841.455,482.484 845,484.5C 846.164,487.567 845.164,489.233 842,489.5C 838.366,488.733 834.866,487.566 831.5,486C 832.464,484.275 833.131,482.441 833.5,480.5 Z"/></g>
<g><path style="opacity:1" fill="#199f44" d="M 866.5,488.5 C 880.184,488.022 885.018,494.355 881,507.5C 876.283,514.796 870.116,516.296 862.5,512C 856.21,502.806 857.543,494.973 866.5,488.5 Z"/></g>
<g><path style="opacity:1" fill="#f7fcf9" d="M 868.5,493.5 C 874.18,492.521 877.18,494.855 877.5,500.5C 876.564,508.716 872.398,511.05 865,507.5C 862.267,501.722 863.434,497.056 868.5,493.5 Z"/></g>
<g><path style="opacity:1" fill="#eff1f6" d="M 570.5,497.5 C 572.267,499.792 573.267,502.458 573.5,505.5C 576.187,505.336 578.854,505.503 581.5,506C 579.024,507.309 577.024,509.142 575.5,511.5C 576.752,513.735 577.252,516.069 577,518.5C 573,513.167 569,513.167 565,518.5C 564.463,515.813 564.963,513.313 566.5,511C 564.343,509.088 562.009,507.421 559.5,506C 562.482,505.502 565.482,505.335 568.5,505.5C 568.963,502.779 569.629,500.112 570.5,497.5 Z"/></g>
<g><path style="opacity:1" fill="#1da045" d="M 898.5,501.5 C 905.591,499.967 910.757,502.3 914,508.5C 915.561,513.672 914.395,515.005 910.5,512.5C 908.225,506.505 904.225,505.005 898.5,508C 895.197,511.795 894.697,515.962 897,520.5C 899.99,523.021 902.824,523.021 905.5,520.5C 904.05,519.15 903.383,517.484 903.5,515.5C 906.568,516.022 909.568,516.855 912.5,518C 913.022,518.561 913.355,519.228 913.5,520C 911.819,523.863 909.986,527.697 908,531.5C 906.294,530.692 905.461,529.359 905.5,527.5C 893.714,527.876 888.881,522.209 891,510.5C 892.642,506.7 895.142,503.7 898.5,501.5 Z"/></g>
<g><path style="opacity:1" fill="#1da146" d="M 929.5,511.5 C 934.473,513.987 939.473,516.487 944.5,519C 948.5,523.667 948.5,528.333 944.5,533C 943.234,533.309 942.067,533.809 941,534.5C 940.649,538.556 939.315,542.223 937,545.5C 935.745,544.789 934.579,543.956 933.5,543C 937.763,535.445 935.597,530.945 927,529.5C 924.93,531.963 923.097,534.629 921.5,537.5C 919.77,536.974 918.436,535.974 917.5,534.5C 921.768,526.964 925.768,519.297 929.5,511.5 Z"/></g>
<g><path style="opacity:1" fill="#f5fbf7" d="M 931.5,518.5 C 934.473,519.987 937.473,521.487 940.5,523C 943.326,525.864 942.826,528.031 939,529.5C 935.279,528.057 931.779,526.223 928.5,524C 929.639,522.22 930.639,520.386 931.5,518.5 Z"/></g>
<g><path style="opacity:1" fill="#1da046" d="M 960.5,527.5 C 967.302,531.069 973.969,534.902 980.5,539C 979.845,540.487 978.845,541.653 977.5,542.5C 972.341,540.088 967.341,537.421 962.5,534.5C 960.876,535.869 960.376,537.536 961,539.5C 964.581,541.374 968.081,543.374 971.5,545.5C 972.59,546.391 972.59,547.391 971.5,548.5C 970.635,549.583 969.635,549.749 968.5,549C 964.905,547.287 961.405,545.453 958,543.5C 955.33,544.931 954.497,546.931 955.5,549.5C 960.666,552.248 965.666,555.248 970.5,558.5C 969.917,560.002 969.084,561.335 968,562.5C 961.085,558.626 954.251,554.626 947.5,550.5C 952.098,542.968 956.432,535.302 960.5,527.5 Z"/></g>
<g><path style="opacity:1" fill="#dbe0ec" d="M 875.5,537.5 C 876.339,538.641 877.006,539.974 877.5,541.5C 879.167,542.167 880.833,542.833 882.5,543.5C 879.494,545.357 878.828,547.857 880.5,551C 878.583,550.973 876.916,550.139 875.5,548.5C 874.186,549.313 873.019,550.313 872,551.5C 871.504,549.965 871.67,548.465 872.5,547C 871.201,545.674 869.868,544.34 868.5,543C 870.473,542.505 872.473,542.338 874.5,542.5C 874.366,540.708 874.699,539.042 875.5,537.5 Z"/></g>
<g><path style="opacity:1" fill="#1da146" d="M 990.5,548.5 C 997.686,548.508 1003.19,551.508 1007,557.5C 1008.18,564.027 1006.52,565.36 1002,561.5C 1001.18,555.989 998.184,553.656 993,554.5C 992.333,555.5 992.333,556.5 993,557.5C 997.373,560.857 1000.54,565.024 1002.5,570C 1001.58,575.792 998.248,578.126 992.5,577C 987.451,575.283 983.618,572.116 981,567.5C 979.566,560.02 981.399,558.853 986.5,564C 985.633,566.316 986.299,568.316 988.5,570C 990.853,571.964 993.353,572.464 996,571.5C 996.667,570.5 996.667,569.5 996,568.5C 992.63,565.465 989.63,562.132 987,558.5C 985.756,554.191 986.923,550.858 990.5,548.5 Z"/></g>
<g><path style="opacity:1" fill="#e4e8f0" d="M 692.5,561.5 C 694.074,563.102 694.741,565.102 694.5,567.5C 702.719,566.977 703.385,568.644 696.5,572.5C 699.854,579.143 698.688,580.143 693,575.5C 691.018,575.99 689.351,576.99 688,578.5C 689.739,573.633 688.239,570.133 683.5,568C 688.659,568.543 691.659,566.377 692.5,561.5 Z"/></g>
<g><path style="opacity:1" fill="#1da046" d="M 1019.5,567.5 C 1026.78,567.892 1032.28,571.225 1036,577.5C 1037.32,583.196 1035.66,584.529 1031,581.5C 1030.61,575.517 1027.61,572.851 1022,573.5C 1021.48,575.289 1021.81,576.956 1023,578.5C 1028.07,581.97 1030.4,586.636 1030,592.5C 1027.84,596.124 1024.67,597.291 1020.5,596C 1012.72,593.577 1008.89,588.411 1009,580.5C 1010.68,579.397 1012.18,579.73 1013.5,581.5C 1014.34,586.506 1017.17,589.84 1022,591.5C 1024.19,590.941 1024.85,589.607 1024,587.5C 1021.33,584.167 1018.67,580.833 1016,577.5C 1015.33,575.5 1015.33,573.5 1016,571.5C 1017.38,570.295 1018.54,568.962 1019.5,567.5 Z"/></g>
<g><path style="opacity:1" fill="#1ca045" d="M 1046.5,590.5 C 1059.05,588.877 1064.21,594.21 1062,606.5C 1058.5,613.999 1052.67,616.833 1044.5,615C 1037.96,611.085 1036.13,605.585 1039,598.5C 1041.03,595.308 1043.53,592.641 1046.5,590.5 Z"/></g>
<g><path style="opacity:1" fill="#f7fcf8" d="M 1048.5,595.5 C 1056.17,594.668 1059,598.002 1057,605.5C 1054.46,610.069 1050.63,611.569 1045.5,610C 1041.05,604.09 1042.05,599.257 1048.5,595.5 Z"/></g>
<g><path style="opacity:1" fill="#ebeef4" d="M 798.5,595.5 C 800.614,596.784 801.614,598.784 801.5,601.5C 803.857,601.337 806.19,601.503 808.5,602C 806.36,602.973 804.693,604.473 803.5,606.5C 804.548,608.456 805.048,610.456 805,612.5C 803.255,611.044 801.422,609.711 799.5,608.5C 797.578,609.711 795.745,611.044 794,612.5C 793.952,610.456 794.452,608.456 795.5,606.5C 794.307,604.473 792.64,602.973 790.5,602C 792.81,601.503 795.143,601.337 797.5,601.5C 797.833,599.5 798.167,597.5 798.5,595.5 Z"/></g>
<g><path style="opacity:1" fill="#d7dce9" d="M 622.5,604.5 C 623.69,606.826 625.69,607.993 628.5,608C 627.272,608.779 626.272,609.779 625.5,611C 626.187,612.162 626.353,613.328 626,614.5C 624.604,612.473 622.938,612.14 621,613.5C 620.707,611.075 619.541,609.242 617.5,608C 619.134,607.506 620.801,607.34 622.5,607.5C 622.5,606.5 622.5,605.5 622.5,604.5 Z"/></g>
<g><path style="opacity:1" fill="#eff1f6" d="M 595.5,615.5 C 596.67,617.65 597.67,619.984 598.5,622.5C 601.107,623.318 603.774,623.818 606.5,624C 604.667,625.167 602.833,626.333 601,627.5C 601.333,630.5 601.667,633.5 602,636.5C 600.104,634.47 597.937,632.803 595.5,631.5C 593.424,633.288 591.257,634.954 589,636.5C 589.736,633.593 590.07,630.593 590,627.5C 588.59,626.213 587.09,625.046 585.5,624C 588.146,623.503 590.813,623.336 593.5,623.5C 593.56,620.659 594.226,617.993 595.5,615.5 Z"/></g>
<g><path style="opacity:1" fill="#eaedf4" d="M 831.5,620.5 C 832.771,622.109 833.771,623.942 834.5,626C 836.5,626.333 838.5,626.667 840.5,627C 839.016,628.574 837.349,629.907 835.5,631C 836.842,633.015 837.342,635.182 837,637.5C 835.622,635.787 833.955,634.453 832,633.5C 829.971,635.26 827.804,636.427 825.5,637C 828.676,632.437 827.676,629.103 822.5,627C 827.659,627.543 830.659,625.377 831.5,620.5 Z"/></g>
<g><path style="opacity:1" fill="#ebeef4" d="M 770.5,622.5 C 771.947,623.622 772.947,625.122 773.5,627C 774.833,627.333 776.167,627.667 777.5,628C 776.313,629.019 775.313,630.186 774.5,631.5C 775.428,632.768 775.595,634.101 775,635.5C 772.541,632.9 770.041,632.9 767.5,635.5C 767.167,635.333 766.833,635.167 766.5,635C 769.345,632.176 769.012,629.843 765.5,628C 766.793,627.51 768.127,627.343 769.5,627.5C 769.629,625.784 769.962,624.117 770.5,622.5 Z"/></g>
<g><path style="opacity:1" fill="#e5e8f1" d="M 560.5,642.5 C 562.043,643.736 563.043,645.402 563.5,647.5C 571.004,647.522 571.838,649.189 566,652.5C 566.155,654.811 566.155,657.144 566,659.5C 562.877,655.566 559.71,655.566 556.5,659.5C 556.167,659.333 555.833,659.167 555.5,659C 558.826,654.479 557.826,651.312 552.5,649.5C 554.743,648.526 557.076,648.192 559.5,648.5C 559.833,646.5 560.167,644.5 560.5,642.5 Z"/></g>
<g><path style="opacity:1" fill="#e5e9f1" d="M 784.5,644.5 C 786.048,644.821 786.715,645.821 786.5,647.5C 789.999,647.259 790.332,648.092 787.5,650C 788.982,653.757 788.316,654.257 785.5,651.5C 784.38,652.833 783.047,653.333 781.5,653C 782.833,651.333 782.833,649.667 781.5,648C 782.448,647.517 783.448,647.351 784.5,647.5C 784.5,646.5 784.5,645.5 784.5,644.5 Z"/></g>
<g><path style="opacity:1" fill="#ebeef4" d="M 653.5,645.5 C 654.771,647.109 655.771,648.942 656.5,651C 658.833,651.333 661.167,651.667 663.5,652C 661.283,653.268 659.283,654.768 657.5,656.5C 660.654,663.822 659.487,664.489 654,658.5C 652.333,659.833 650.667,661.167 649,662.5C 650.738,657.594 649.238,654.094 644.5,652C 650.023,653.005 653.023,650.839 653.5,645.5 Z"/></g>
<g><path style="opacity:1" fill="#eef0f5" d="M 995.5,646.5 C 996.67,648.65 997.67,650.984 998.5,653.5C 1000.77,654.314 1003.1,654.814 1005.5,655C 1003.53,656.46 1001.87,658.127 1000.5,660C 1001.65,662.437 1002.15,664.937 1002,667.5C 1000.1,665.47 997.937,663.803 995.5,662.5C 993.424,664.288 991.257,665.954 989,667.5C 988.833,667.167 988.667,666.833 988.5,666.5C 991.939,661.419 990.939,657.586 985.5,655C 987.833,654.667 990.167,654.333 992.5,654C 993.601,651.528 994.601,649.028 995.5,646.5 Z"/></g>
<g><path style="opacity:1" fill="#e0e4ee" d="M 1033.5,653.5 C 1035.03,654.105 1036.03,655.271 1036.5,657C 1038.26,657.202 1039.92,657.702 1041.5,658.5C 1037.19,660.113 1036.52,662.613 1039.5,666C 1037.58,665.973 1035.92,665.139 1034.5,663.5C 1029.88,667.863 1028.88,667.363 1031.5,662C 1030.39,660.606 1029.05,659.439 1027.5,658.5C 1029.08,657.702 1030.74,657.202 1032.5,657C 1033.34,655.989 1033.67,654.822 1033.5,653.5 Z"/></g>
<g><path style="opacity:1" fill="#edeff5" d="M 1006.5,673.5 C 1008.04,674.736 1009.04,676.402 1009.5,678.5C 1011.77,679.314 1014.1,679.814 1016.5,680C 1015.03,680.635 1013.7,681.469 1012.5,682.5C 1011.83,684.926 1011.5,687.259 1011.5,689.5C 1008.09,685.649 1004.92,685.983 1002,690.5C 1001.66,688.182 1002.16,686.015 1003.5,684C 1002.02,682.426 1000.35,681.093 998.5,680C 1003.74,680.873 1006.4,678.706 1006.5,673.5 Z"/></g>
<g><path style="opacity:1" fill="#eceef4" d="M 798.5,673.5 C 800.343,675.547 801.676,678.047 802.5,681C 805.167,681.333 807.833,681.667 810.5,682C 807.998,683.337 805.998,685.171 804.5,687.5C 804.967,689.568 805.634,691.568 806.5,693.5C 806.167,693.833 805.833,694.167 805.5,694.5C 803.747,692.739 801.747,691.406 799.5,690.5C 797.253,691.406 795.253,692.739 793.5,694.5C 793.167,694.167 792.833,693.833 792.5,693.5C 795.873,688.073 794.54,684.24 788.5,682C 795.702,683.549 799.036,680.715 798.5,673.5 Z"/></g>
<g><path style="opacity:1" fill="#e6e9f1" d="M 644.5,675.5 C 646.026,676.105 647.026,677.271 647.5,679C 649.256,679.202 650.922,679.702 652.5,680.5C 651.019,681.48 649.685,682.647 648.5,684C 651.15,689.348 650.15,689.848 645.5,685.5C 644.186,686.313 643.019,687.313 642,688.5C 641.504,686.965 641.67,685.465 642.5,684C 641.728,682.779 640.728,681.779 639.5,681C 643.459,681.209 645.126,679.375 644.5,675.5 Z"/></g>
<g><path style="opacity:1" fill="#e1e5ef" d="M 989.5,695.5 C 990.771,697.109 991.771,698.942 992.5,701C 994.833,701.333 997.167,701.667 999.5,702C 997.359,703.308 995.359,704.808 993.5,706.5C 996.854,713.143 995.688,714.143 990,709.5C 988.343,710.484 986.677,711.484 985,712.5C 986.739,707.633 985.239,704.133 980.5,702C 986.023,703.005 989.023,700.839 989.5,695.5 Z"/></g>
<g><path style="opacity:1" fill="#eff1f6" d="M 686.5,696.5 C 688.267,698.792 689.267,701.458 689.5,704.5C 692.187,704.336 694.854,704.503 697.5,705C 695.208,706.29 693.208,707.957 691.5,710C 692.5,712.333 693.5,714.667 694.5,717C 694.167,717.167 693.833,717.333 693.5,717.5C 689.286,712.253 685.12,712.253 681,717.5C 680.846,714.937 681.346,712.437 682.5,710C 680.812,707.981 678.812,706.314 676.5,705C 679.146,704.503 681.813,704.336 684.5,704.5C 684.963,701.779 685.629,699.112 686.5,696.5 Z"/></g>
<g><path style="opacity:1" fill="#eceef4" d="M 937.5,706.5 C 939.185,707.184 940.185,708.517 940.5,710.5C 942.078,711.298 943.744,711.798 945.5,712C 943.884,712.615 942.551,713.615 941.5,715C 943.247,719.381 942.414,720.214 939,717.5C 937.527,717.903 936.194,718.57 935,719.5C 936.449,715.893 935.282,713.393 931.5,712C 935.898,712.592 937.898,710.759 937.5,706.5 Z"/></g>
<g><path style="opacity:1" fill="#dce0ec" d="M 860.5,708.5 C 861.931,709.78 862.598,711.447 862.5,713.5C 864.527,713.338 866.527,713.505 868.5,714C 867.132,715.34 865.799,716.674 864.5,718C 865.33,719.465 865.496,720.965 865,722.5C 863.846,721.257 862.512,720.257 861,719.5C 859.829,721.616 858.329,722.282 856.5,721.5C 858.306,717.895 857.306,715.395 853.5,714C 855.577,713.808 857.577,713.308 859.5,712.5C 860.246,711.264 860.579,709.93 860.5,708.5 Z"/></g>
<g><path style="opacity:1" fill="#e8ebf2" d="M 966.5,711.5 C 968.085,712.474 969.085,713.974 969.5,716C 975.151,715.979 975.651,717.145 971,719.5C 971.046,721.313 970.88,722.979 970.5,724.5C 969.5,723.833 968.5,723.167 967.5,722.5C 962.571,726.874 961.571,726.208 964.5,720.5C 963.395,719.108 962.061,717.941 960.5,717C 964.898,717.592 966.898,715.759 966.5,711.5 Z"/></g>
<g><path style="opacity:1" fill="#e3e7f0" d="M 906.5,715.5 C 908.213,716.635 908.88,718.302 908.5,720.5C 910.527,720.338 912.527,720.505 914.5,721C 913.132,722.34 911.799,723.674 910.5,725C 911.33,726.465 911.496,727.965 911,729.5C 909.981,728.313 908.814,727.313 907.5,726.5C 902.798,730.793 901.798,730.126 904.5,724.5C 903.019,723.52 901.685,722.353 900.5,721C 904.466,721.143 906.466,719.309 906.5,715.5 Z"/></g>
<g><path style="opacity:1" fill="#e6e9f1" d="M 939.5,731.5 C 940.738,733.214 941.405,735.214 941.5,737.5C 944.187,737.336 946.854,737.503 949.5,738C 947.188,739.314 945.188,740.981 943.5,743C 944.451,745.158 944.951,747.325 945,749.5C 942.068,744.627 938.735,744.294 935,748.5C 935.155,746.189 935.155,743.856 935,741.5C 933.745,740.789 932.579,739.956 931.5,739C 933.473,738.505 935.473,738.338 937.5,738.5C 937.767,736.035 938.434,733.701 939.5,731.5 Z"/></g>
<g><path style="opacity:1" fill="#e2e6ef" d="M 882.5,738.5 C 884.043,739.736 885.043,741.402 885.5,743.5C 893.004,743.522 893.838,745.189 888,748.5C 888.155,750.811 888.155,753.144 888,755.5C 884.786,751.587 881.62,751.587 878.5,755.5C 878.167,755.167 877.833,754.833 877.5,754.5C 878.304,753.059 878.971,751.559 879.5,750C 878.003,748.338 876.337,746.838 874.5,745.5C 876.743,744.526 879.076,744.192 881.5,744.5C 881.833,742.5 882.167,740.5 882.5,738.5 Z"/></g>
<g><path style="opacity:1" fill="#dbe0ec" d="M 938.5,761.5 C 940.213,762.635 940.88,764.302 940.5,766.5C 942.527,766.338 944.527,766.505 946.5,767C 945.132,768.34 943.799,769.674 942.5,771C 943.33,772.465 943.496,773.965 943,775.5C 941.981,774.313 940.814,773.313 939.5,772.5C 938.084,774.139 936.417,774.973 934.5,775C 936.172,771.857 935.506,769.357 932.5,767.5C 936.369,767.191 938.369,765.191 938.5,761.5 Z"/></g>
<g><path style="opacity:1" fill="#e1e6ef" d="M 798.5,775.5 C 802.327,776.436 803.161,778.436 801,781.5C 800,780.167 799,780.167 798,781.5C 797.691,780.234 797.191,779.067 796.5,778C 797.756,777.583 798.423,776.75 798.5,775.5 Z"/></g>
</svg>
