<?xml version="1.0" encoding="UTF-8"?>
<!DOCTYPE svg PUBLIC "-//W3C//DTD SVG 1.1//EN" "http://www.w3.org/Graphics/SVG/1.1/DTD/svg11.dtd">
<svg xmlns="http://www.w3.org/2000/svg" version="1.1" width="1600px" height="842px" style="shape-rendering:geometricPrecision; text-rendering:geometricPrecision; image-rendering:optimizeQuality; fill-rule:evenodd; clip-rule:evenodd" xmlns:xlink="http://www.w3.org/1999/xlink">
<g><path style="opacity:1" fill="#3c3b6e" d="M -0.5,-0.5 C 212.833,-0.5 426.167,-0.5 639.5,-0.5C 639.5,21.1667 639.5,42.8333 639.5,64.5C 639.5,86.1667 639.5,107.833 639.5,129.5C 639.5,150.833 639.5,172.167 639.5,193.5C 639.5,215.167 639.5,236.833 639.5,258.5C 639.5,280.167 639.5,301.833 639.5,323.5C 639.5,345.167 639.5,366.833 639.5,388.5C 639.5,409.833 639.5,431.167 639.5,452.5C 426.167,452.5 212.833,452.5 -0.5,452.5C -0.5,301.5 -0.5,150.5 -0.5,-0.5 Z"/></g>
<g><path style="opacity:1" fill="#b22334" d="M 639.5,-0.5 C 959.5,-0.5 1279.5,-0.5 1599.5,-0.5C 1599.5,21.1667 1599.5,42.8333 1599.5,64.5C 1279.5,64.5 959.5,64.5 639.5,64.5C 639.5,42.8333 639.5,21.1667 639.5,-0.5 Z"/></g>
<g><path style="opacity:1" fill="#f8f8fa" d="M 58.5,36.5 C 64.1667,37.1667 69.8333,37.8333 75.5,38.5C 70.9777,41.5937 66.6443,44.927 62.5,48.5C 64.933,53.7532 66.2664,59.0865 66.5,64.5C 61.9109,61.2886 57.4109,57.9553 53,54.5C 48.5891,57.9553 44.0891,61.2886 39.5,64.5C 39.337,58.952 40.6703,53.6187 43.5,48.5C 39.3557,44.927 35.0223,41.5937 30.5,38.5C 36.1667,37.8333 41.8333,37.1667 47.5,36.5C 48.5671,30.5577 50.4004,24.891 53,19.5C 54.9893,25.1264 56.8226,30.793 58.5,36.5 Z"/></g>
<g><path style="opacity:1" fill="#f8f8fa" d="M 271.5,36.5 C 277.167,37.1667 282.833,37.8333 288.5,38.5C 284.161,41.8403 279.828,45.1736 275.5,48.5C 278.33,53.6187 279.663,58.952 279.5,64.5C 275.398,60.8965 270.898,57.8965 266,55.5C 261.097,58.7041 256.263,62.0375 251.5,65.5C 252.443,59.9652 254.11,54.2985 256.5,48.5C 252.716,44.4427 248.383,41.1094 243.5,38.5C 249.167,37.8333 254.833,37.1667 260.5,36.5C 262.177,30.793 264.011,25.1264 266,19.5C 268.325,24.9755 270.158,30.6422 271.5,36.5 Z"/></g>
<g><path style="opacity:1" fill="#f8f8fa" d="M 378.5,36.5 C 384.167,37.1667 389.833,37.8333 395.5,38.5C 390.978,41.5937 386.644,44.927 382.5,48.5C 384.933,53.7532 386.266,59.0865 386.5,64.5C 381.911,61.2886 377.411,57.9553 373,54.5C 368.589,57.9553 364.089,61.2886 359.5,64.5C 359.337,58.952 360.67,53.6187 363.5,48.5C 359.356,44.927 355.022,41.5937 350.5,38.5C 356.167,37.8333 361.833,37.1667 367.5,36.5C 368.567,30.5577 370.4,24.891 373,19.5C 374.989,25.1264 376.823,30.793 378.5,36.5 Z"/></g>
<g><path style="opacity:1" fill="#f8f8fa" d="M 591.5,36.5 C 597.167,37.1667 602.833,37.8333 608.5,38.5C 604.161,41.8403 599.828,45.1736 595.5,48.5C 598.33,53.6187 599.663,58.952 599.5,64.5C 595.398,60.8965 590.898,57.8965 586,55.5C 581.097,58.7041 576.263,62.0375 571.5,65.5C 572.443,59.9652 574.11,54.2985 576.5,48.5C 572.716,44.4427 568.383,41.1094 563.5,38.5C 569.167,37.8333 574.833,37.1667 580.5,36.5C 582.177,30.793 584.011,25.1264 586,19.5C 588.325,24.9755 590.158,30.6422 591.5,36.5 Z"/></g>
<g><path style="opacity:1" fill="#f7f7f9" d="M 164.5,35.5 C 170.074,37.4533 176.074,38.12 182.5,37.5C 179.634,40.5211 176.3,43.0211 172.5,45C 171.101,46.0616 170.101,47.395 169.5,49C 171.644,54.4156 173.144,59.9156 174,65.5C 169.388,61.7829 164.555,58.4496 159.5,55.5C 154.445,58.4496 149.612,61.7829 145,65.5C 145.856,59.9156 147.356,54.4156 149.5,49C 148.899,47.395 147.899,46.0616 146.5,45C 143.079,43.3015 140.079,41.1348 137.5,38.5C 143.406,38.1457 149.073,37.1457 154.5,35.5C 155.549,29.9721 157.215,24.6388 159.5,19.5C 161.785,24.6388 163.451,29.9721 164.5,35.5 Z"/></g>
<g><path style="opacity:1" fill="#f7f7f9" d="M 484.5,35.5 C 490.074,37.4533 496.074,38.12 502.5,37.5C 499.634,40.5211 496.3,43.0211 492.5,45C 491.101,46.0616 490.101,47.395 489.5,49C 491.644,54.4156 493.144,59.9156 494,65.5C 489.388,61.7829 484.555,58.4496 479.5,55.5C 474.445,58.4496 469.612,61.7829 465,65.5C 465.856,59.9156 467.356,54.4156 469.5,49C 468.899,47.395 467.899,46.0616 466.5,45C 463.079,43.3015 460.079,41.1348 457.5,38.5C 463.406,38.1457 469.073,37.1457 474.5,35.5C 475.549,29.9721 477.215,24.6388 479.5,19.5C 481.785,24.6388 483.451,29.9721 484.5,35.5 Z"/></g>
<g><path style="opacity:1" fill="#bdbdce" d="M 47.5,36.5 C 41.8333,37.1667 36.1667,37.8333 30.5,38.5C 29.7109,38.2172 29.0442,37.7172 28.5,37C 34.8246,36.5005 41.1579,36.3338 47.5,36.5 Z"/></g>
<g><path style="opacity:1" fill="#b9b8cb" d="M 58.5,36.5 C 64.8421,36.3338 71.1754,36.5005 77.5,37C 76.9558,37.7172 76.2891,38.2172 75.5,38.5C 69.8333,37.8333 64.1667,37.1667 58.5,36.5 Z"/></g>
<g><path style="opacity:1" fill="#c1c1d1" d="M 154.5,35.5 C 149.073,37.1457 143.406,38.1457 137.5,38.5C 136.711,38.2172 136.044,37.7172 135.5,37C 141.914,36.7932 148.247,36.2932 154.5,35.5 Z"/></g>
<g><path style="opacity:1" fill="#c0bfd0" d="M 164.5,35.5 C 171.175,36.0931 177.175,36.7597 182.5,37.5C 176.074,38.12 170.074,37.4533 164.5,35.5 Z"/></g>
<g><path style="opacity:1" fill="#b8b8ca" d="M 260.5,36.5 C 254.833,37.1667 249.167,37.8333 243.5,38.5C 242.711,38.2172 242.044,37.7172 241.5,37C 247.825,36.5005 254.158,36.3338 260.5,36.5 Z"/></g>
<g><path style="opacity:1" fill="#bebecf" d="M 271.5,36.5 C 277.842,36.3338 284.175,36.5005 290.5,37C 289.956,37.7172 289.289,38.2172 288.5,38.5C 282.833,37.8333 277.167,37.1667 271.5,36.5 Z"/></g>
<g><path style="opacity:1" fill="#bdbdce" d="M 367.5,36.5 C 361.833,37.1667 356.167,37.8333 350.5,38.5C 349.711,38.2172 349.044,37.7172 348.5,37C 354.825,36.5005 361.158,36.3338 367.5,36.5 Z"/></g>
<g><path style="opacity:1" fill="#b9b8cb" d="M 378.5,36.5 C 384.842,36.3338 391.175,36.5005 397.5,37C 396.956,37.7172 396.289,38.2172 395.5,38.5C 389.833,37.8333 384.167,37.1667 378.5,36.5 Z"/></g>
<g><path style="opacity:1" fill="#c1c1d1" d="M 474.5,35.5 C 469.073,37.1457 463.406,38.1457 457.5,38.5C 456.711,38.2172 456.044,37.7172 455.5,37C 461.914,36.7932 468.247,36.2932 474.5,35.5 Z"/></g>
<g><path style="opacity:1" fill="#c0bfd0" d="M 484.5,35.5 C 491.175,36.0931 497.175,36.7597 502.5,37.5C 496.074,38.12 490.074,37.4533 484.5,35.5 Z"/></g>
<g><path style="opacity:1" fill="#b8b8ca" d="M 580.5,36.5 C 574.833,37.1667 569.167,37.8333 563.5,38.5C 562.711,38.2172 562.044,37.7172 561.5,37C 567.825,36.5005 574.158,36.3338 580.5,36.5 Z"/></g>
<g><path style="opacity:1" fill="#bebecf" d="M 591.5,36.5 C 597.842,36.3338 604.175,36.5005 610.5,37C 609.956,37.7172 609.289,38.2172 608.5,38.5C 602.833,37.8333 597.167,37.1667 591.5,36.5 Z"/></g>
<g><path style="opacity:1" fill="#fefdfd" d="M 639.5,64.5 C 959.5,64.5 1279.5,64.5 1599.5,64.5C 1599.5,86.1667 1599.5,107.833 1599.5,129.5C 1279.5,129.5 959.5,129.5 639.5,129.5C 639.5,107.833 639.5,86.1667 639.5,64.5 Z"/></g>
<g><path style="opacity:1" fill="#f9f9fa" d="M 111.5,81.5 C 117.5,82.1667 123.5,82.8333 129.5,83.5C 124.408,86.4238 119.742,89.9238 115.5,94C 117.492,99.3055 119.492,104.639 121.5,110C 120.833,110.667 120.167,110.667 119.5,110C 115.071,106.705 110.571,103.538 106,100.5C 101.344,103.819 96.6773,107.152 92,110.5C 93.3364,104.489 94.6698,98.4889 96,92.5C 91.5,89.3333 87,86.1667 82.5,83C 88.4908,82.5005 94.4908,82.3338 100.5,82.5C 102.023,76.428 103.857,70.428 106,64.5C 108.34,70.0194 110.173,75.6861 111.5,81.5 Z"/></g>
<g><path style="opacity:1" fill="#f9f9fa" d="M 189.5,83.5 C 195.5,82.8333 201.5,82.1667 207.5,81.5C 208.827,75.6861 210.66,70.0194 213,64.5C 215.143,70.428 216.977,76.428 218.5,82.5C 224.509,82.3338 230.509,82.5005 236.5,83C 231.527,86.31 226.86,89.9767 222.5,94C 224.639,99.4048 226.139,104.905 227,110.5C 222.323,107.152 217.656,103.819 213,100.5C 208.429,103.538 203.929,106.705 199.5,110C 198.833,110.667 198.167,110.667 197.5,110C 199.597,104.544 201.597,99.0439 203.5,93.5C 199.094,89.7536 194.427,86.4203 189.5,83.5 Z"/></g>
<g><path style="opacity:1" fill="#f9f9fa" d="M 431.5,81.5 C 437.5,82.1667 443.5,82.8333 449.5,83.5C 444.408,86.4238 439.742,89.9238 435.5,94C 437.492,99.3055 439.492,104.639 441.5,110C 440.833,110.667 440.167,110.667 439.5,110C 435.071,106.705 430.571,103.538 426,100.5C 421.344,103.819 416.677,107.152 412,110.5C 413.336,104.489 414.67,98.4889 416,92.5C 411.5,89.3333 407,86.1667 402.5,83C 408.491,82.5005 414.491,82.3338 420.5,82.5C 422.023,76.428 423.857,70.428 426,64.5C 428.34,70.0194 430.173,75.6861 431.5,81.5 Z"/></g>
<g><path style="opacity:1" fill="#f9f9fa" d="M 509.5,83.5 C 515.5,82.8333 521.5,82.1667 527.5,81.5C 528.827,75.6861 530.66,70.0194 533,64.5C 535.143,70.428 536.977,76.428 538.5,82.5C 544.509,82.3338 550.509,82.5005 556.5,83C 551.527,86.31 546.86,89.9767 542.5,94C 544.639,99.4048 546.139,104.905 547,110.5C 542.323,107.152 537.656,103.819 533,100.5C 528.429,103.538 523.929,106.705 519.5,110C 518.833,110.667 518.167,110.667 517.5,110C 519.597,104.544 521.597,99.0439 523.5,93.5C 519.094,89.7536 514.427,86.4203 509.5,83.5 Z"/></g>
<g><path style="opacity:1" fill="#f8f8fa" d="M 325.5,81.5 C 331.167,82.1667 336.833,82.8333 342.5,83.5C 338.451,86.6131 334.284,89.6131 330,92.5C 330.552,98.3387 332.052,104.005 334.5,109.5C 334.167,109.833 333.833,110.167 333.5,110.5C 329.112,106.779 324.445,103.445 319.5,100.5C 314.555,103.445 309.888,106.779 305.5,110.5C 305.167,110.167 304.833,109.833 304.5,109.5C 306.398,104.41 308.064,99.2436 309.5,94C 305.599,90.0385 301.266,86.5385 296.5,83.5C 302.167,82.8333 307.833,82.1667 313.5,81.5C 315.298,76.1081 317.298,70.7748 319.5,65.5C 321.702,70.7748 323.702,76.1081 325.5,81.5 Z"/></g>
<g><path style="opacity:1" fill="#7e7d9f" d="M 111.5,81.5 C 117.868,81.1703 124.202,81.5037 130.5,82.5C 130.376,83.1067 130.043,83.44 129.5,83.5C 123.5,82.8333 117.5,82.1667 111.5,81.5 Z"/></g>
<g><path style="opacity:1" fill="#7e7d9f" d="M 207.5,81.5 C 201.5,82.1667 195.5,82.8333 189.5,83.5C 188.957,83.44 188.624,83.1067 188.5,82.5C 194.798,81.5037 201.132,81.1703 207.5,81.5 Z"/></g>
<g><path style="opacity:1" fill="#7e7d9e" d="M 313.5,81.5 C 307.833,82.1667 302.167,82.8333 296.5,83.5C 295.957,83.44 295.624,83.1067 295.5,82.5C 301.463,81.5041 307.463,81.1707 313.5,81.5 Z"/></g>
<g><path style="opacity:1" fill="#7e7d9f" d="M 325.5,81.5 C 331.537,81.1707 337.537,81.5041 343.5,82.5C 343.376,83.1067 343.043,83.44 342.5,83.5C 336.833,82.8333 331.167,82.1667 325.5,81.5 Z"/></g>
<g><path style="opacity:1" fill="#7e7d9f" d="M 431.5,81.5 C 437.868,81.1703 444.202,81.5037 450.5,82.5C 450.376,83.1067 450.043,83.44 449.5,83.5C 443.5,82.8333 437.5,82.1667 431.5,81.5 Z"/></g>
<g><path style="opacity:1" fill="#7e7d9f" d="M 527.5,81.5 C 521.5,82.1667 515.5,82.8333 509.5,83.5C 508.957,83.44 508.624,83.1067 508.5,82.5C 514.798,81.5037 521.132,81.1703 527.5,81.5 Z"/></g>
<g><path style="opacity:1" fill="#f8f8fa" d="M 52.5,110.5 C 55.2687,115.801 57.2687,121.468 58.5,127.5C 64.5092,127.334 70.5092,127.501 76.5,128C 71.6097,131.605 66.9431,135.438 62.5,139.5C 64.7417,144.712 66.2417,150.046 67,155.5C 62.3333,152.167 57.6667,148.833 53,145.5C 48.3333,148.833 43.6667,152.167 39,155.5C 39.4609,149.774 40.9609,144.274 43.5,139C 38.6776,135.089 33.6776,131.422 28.5,128C 34.8246,127.5 41.1579,127.334 47.5,127.5C 48.5625,121.647 50.2292,115.98 52.5,110.5 Z"/></g>
<g><path style="opacity:1" fill="#f8f8fa" d="M 265.5,110.5 C 268.658,115.633 270.658,121.3 271.5,127.5C 277.842,127.334 284.175,127.5 290.5,128C 285.322,131.422 280.322,135.089 275.5,139C 278.039,144.274 279.539,149.774 280,155.5C 275.333,152.167 270.667,148.833 266,145.5C 261.359,148.641 256.859,151.974 252.5,155.5C 252.734,150.087 254.067,144.753 256.5,139.5C 252.294,135.13 247.628,131.297 242.5,128C 248.491,127.501 254.491,127.334 260.5,127.5C 261.964,121.775 263.631,116.108 265.5,110.5 Z"/></g>
<g><path style="opacity:1" fill="#f8f8fa" d="M 372.5,110.5 C 375.269,115.801 377.269,121.468 378.5,127.5C 384.509,127.334 390.509,127.501 396.5,128C 391.61,131.605 386.943,135.438 382.5,139.5C 384.742,144.712 386.242,150.046 387,155.5C 382.333,152.167 377.667,148.833 373,145.5C 368.333,148.833 363.667,152.167 359,155.5C 359.461,149.774 360.961,144.274 363.5,139C 358.678,135.089 353.678,131.422 348.5,128C 354.825,127.5 361.158,127.334 367.5,127.5C 368.563,121.647 370.229,115.98 372.5,110.5 Z"/></g>
<g><path style="opacity:1" fill="#f8f8fa" d="M 585.5,110.5 C 588.658,115.633 590.658,121.3 591.5,127.5C 597.842,127.334 604.175,127.5 610.5,128C 605.322,131.422 600.322,135.089 595.5,139C 598.039,144.274 599.539,149.774 600,155.5C 595.333,152.167 590.667,148.833 586,145.5C 581.359,148.641 576.859,151.974 572.5,155.5C 572.734,150.087 574.067,144.753 576.5,139.5C 572.294,135.13 567.628,131.297 562.5,128C 568.491,127.501 574.491,127.334 580.5,127.5C 581.964,121.775 583.631,116.108 585.5,110.5 Z"/></g>
<g><path style="opacity:1" fill="#f7f7f9" d="M 158.5,110.5 C 159.497,110.47 160.164,110.97 160.5,112C 162.068,116.871 163.735,121.704 165.5,126.5C 171.472,127.33 177.472,127.83 183.5,128C 178.348,131.327 173.681,135.16 169.5,139.5C 171.543,145.113 173.043,150.779 174,156.5C 169.436,152.469 164.603,148.802 159.5,145.5C 154.397,148.802 149.564,152.469 145,156.5C 145.957,150.779 147.457,145.113 149.5,139.5C 145.319,135.16 140.652,131.327 135.5,128C 141.528,127.83 147.528,127.33 153.5,126.5C 155.575,121.276 157.242,115.942 158.5,110.5 Z"/></g>
<g><path style="opacity:1" fill="#f7f7f9" d="M 478.5,110.5 C 479.497,110.47 480.164,110.97 480.5,112C 482.068,116.871 483.735,121.704 485.5,126.5C 491.472,127.33 497.472,127.83 503.5,128C 498.348,131.327 493.681,135.16 489.5,139.5C 491.543,145.113 493.043,150.779 494,156.5C 489.436,152.469 484.603,148.802 479.5,145.5C 474.397,148.802 469.564,152.469 465,156.5C 465.957,150.779 467.457,145.113 469.5,139.5C 465.319,135.16 460.652,131.327 455.5,128C 461.528,127.83 467.528,127.33 473.5,126.5C 475.575,121.276 477.242,115.942 478.5,110.5 Z"/></g>
<g><path style="opacity:1" fill="#b12233" d="M 639.5,129.5 C 959.5,129.5 1279.5,129.5 1599.5,129.5C 1599.5,150.833 1599.5,172.167 1599.5,193.5C 1279.5,193.5 959.5,193.5 639.5,193.5C 639.5,172.167 639.5,150.833 639.5,129.5 Z"/></g>
<g><path style="opacity:1" fill="#f8f8fa" d="M 111.5,172.5 C 117.167,173.167 122.833,173.833 128.5,174.5C 124.161,177.84 119.828,181.174 115.5,184.5C 118.33,189.619 119.663,194.952 119.5,200.5C 115.398,196.896 110.898,193.896 106,191.5C 101.174,194.582 96.5077,197.916 92,201.5C 92.5523,195.661 94.0523,189.995 96.5,184.5C 92.3557,180.927 88.0223,177.594 83.5,174.5C 89.1667,173.833 94.8333,173.167 100.5,172.5C 102.177,166.793 104.011,161.126 106,155.5C 108.325,160.976 110.158,166.642 111.5,172.5 Z"/></g>
<g><path style="opacity:1" fill="#f8f8fa" d="M 218.5,172.5 C 224.167,173.167 229.833,173.833 235.5,174.5C 230.978,177.594 226.644,180.927 222.5,184.5C 224.933,189.753 226.266,195.087 226.5,200.5C 222.241,197.122 217.741,194.122 213,191.5C 208.259,194.122 203.759,197.122 199.5,200.5C 199.337,194.952 200.67,189.619 203.5,184.5C 199.356,180.927 195.022,177.594 190.5,174.5C 196.167,173.833 201.833,173.167 207.5,172.5C 208.842,166.642 210.675,160.976 213,155.5C 214.989,161.126 216.823,166.793 218.5,172.5 Z"/></g>
<g><path style="opacity:1" fill="#f8f8fa" d="M 431.5,172.5 C 437.167,173.167 442.833,173.833 448.5,174.5C 444.161,177.84 439.828,181.174 435.5,184.5C 438.33,189.619 439.663,194.952 439.5,200.5C 435.398,196.896 430.898,193.896 426,191.5C 421.174,194.582 416.508,197.916 412,201.5C 412.552,195.661 414.052,189.995 416.5,184.5C 412.356,180.927 408.022,177.594 403.5,174.5C 409.167,173.833 414.833,173.167 420.5,172.5C 422.177,166.793 424.011,161.126 426,155.5C 428.325,160.976 430.158,166.642 431.5,172.5 Z"/></g>
<g><path style="opacity:1" fill="#f8f8fa" d="M 538.5,172.5 C 544.167,173.167 549.833,173.833 555.5,174.5C 550.978,177.594 546.644,180.927 542.5,184.5C 544.933,189.753 546.266,195.087 546.5,200.5C 542.241,197.122 537.741,194.122 533,191.5C 528.259,194.122 523.759,197.122 519.5,200.5C 519.337,194.952 520.67,189.619 523.5,184.5C 519.356,180.927 515.022,177.594 510.5,174.5C 516.167,173.833 521.833,173.167 527.5,172.5C 528.842,166.642 530.675,160.976 533,155.5C 534.989,161.126 536.823,166.793 538.5,172.5 Z"/></g>
<g><path style="opacity:1" fill="#f7f7f9" d="M 324.5,171.5 C 330.074,173.453 336.074,174.12 342.5,173.5C 337.763,176.87 333.43,180.703 329.5,185C 331.644,190.416 333.144,195.916 334,201.5C 329.388,197.783 324.555,194.45 319.5,191.5C 314.445,194.45 309.612,197.783 305,201.5C 305.856,195.916 307.356,190.416 309.5,185C 308.899,183.395 307.899,182.062 306.5,181C 302.7,179.021 299.366,176.521 296.5,173.5C 302.926,174.12 308.926,173.453 314.5,171.5C 315.549,165.972 317.215,160.639 319.5,155.5C 321.568,160.704 323.235,166.038 324.5,171.5 Z"/></g>
<g><path style="opacity:1" fill="#b8b8ca" d="M 100.5,172.5 C 94.8333,173.167 89.1667,173.833 83.5,174.5C 82.7109,174.217 82.0442,173.717 81.5,173C 87.8246,172.5 94.1579,172.334 100.5,172.5 Z"/></g>
<g><path style="opacity:1" fill="#bebecf" d="M 111.5,172.5 C 117.842,172.334 124.175,172.5 130.5,173C 129.956,173.717 129.289,174.217 128.5,174.5C 122.833,173.833 117.167,173.167 111.5,172.5 Z"/></g>
<g><path style="opacity:1" fill="#bdbdce" d="M 207.5,172.5 C 201.833,173.167 196.167,173.833 190.5,174.5C 189.711,174.217 189.044,173.717 188.5,173C 194.825,172.5 201.158,172.334 207.5,172.5 Z"/></g>
<g><path style="opacity:1" fill="#b9b9cb" d="M 218.5,172.5 C 224.842,172.334 231.175,172.5 237.5,173C 236.956,173.717 236.289,174.217 235.5,174.5C 229.833,173.833 224.167,173.167 218.5,172.5 Z"/></g>
<g><path style="opacity:1" fill="#bfbfd0" d="M 314.5,171.5 C 308.926,173.453 302.926,174.12 296.5,173.5C 301.825,172.76 307.825,172.093 314.5,171.5 Z"/></g>
<g><path style="opacity:1" fill="#bfbfd0" d="M 324.5,171.5 C 331.175,172.093 337.175,172.76 342.5,173.5C 336.074,174.12 330.074,173.453 324.5,171.5 Z"/></g>
<g><path style="opacity:1" fill="#b8b8ca" d="M 420.5,172.5 C 414.833,173.167 409.167,173.833 403.5,174.5C 402.711,174.217 402.044,173.717 401.5,173C 407.825,172.5 414.158,172.334 420.5,172.5 Z"/></g>
<g><path style="opacity:1" fill="#bebecf" d="M 431.5,172.5 C 437.842,172.334 444.175,172.5 450.5,173C 449.956,173.717 449.289,174.217 448.5,174.5C 442.833,173.833 437.167,173.167 431.5,172.5 Z"/></g>
<g><path style="opacity:1" fill="#bdbdce" d="M 527.5,172.5 C 521.833,173.167 516.167,173.833 510.5,174.5C 509.711,174.217 509.044,173.717 508.5,173C 514.825,172.5 521.158,172.334 527.5,172.5 Z"/></g>
<g><path style="opacity:1" fill="#b9b9cb" d="M 538.5,172.5 C 544.842,172.334 551.175,172.5 557.5,173C 556.956,173.717 556.289,174.217 555.5,174.5C 549.833,173.833 544.167,173.167 538.5,172.5 Z"/></g>
<g><path style="opacity:1" fill="#fefdfe" d="M 639.5,193.5 C 959.5,193.5 1279.5,193.5 1599.5,193.5C 1599.5,215.167 1599.5,236.833 1599.5,258.5C 1279.5,258.5 959.5,258.5 639.5,258.5C 639.5,236.833 639.5,215.167 639.5,193.5 Z"/></g>
<g><path style="opacity:1" fill="#f9f9fa" d="M 29.5,219.5 C 35.5,218.833 41.5,218.167 47.5,217.5C 48.8267,211.686 50.66,206.019 53,200.5C 55.1432,206.428 56.9766,212.428 58.5,218.5C 64.5092,218.334 70.5092,218.501 76.5,219C 71.5268,222.31 66.8601,225.977 62.5,230C 64.6437,235.416 66.1437,240.916 67,246.5C 62.3227,243.152 57.656,239.819 53,236.5C 48.4294,239.538 43.9294,242.705 39.5,246C 38.8333,246.667 38.1667,246.667 37.5,246C 39.5967,240.544 41.5967,235.044 43.5,229.5C 39.0935,225.754 34.4269,222.42 29.5,219.5 Z"/></g>
<g><path style="opacity:1" fill="#f9f9fb" d="M 271.5,217.5 C 277.5,218.167 283.5,218.833 289.5,219.5C 284.573,222.42 279.906,225.754 275.5,229.5C 277.403,235.044 279.403,240.544 281.5,246C 280.833,246.667 280.167,246.667 279.5,246C 275.071,242.705 270.571,239.538 266,236.5C 261.344,239.819 256.677,243.152 252,246.5C 253.333,240.5 254.667,234.5 256,228.5C 251.5,225.333 247,222.167 242.5,219C 248.491,218.501 254.491,218.334 260.5,218.5C 262.023,212.428 263.857,206.428 266,200.5C 268.34,206.019 270.173,211.686 271.5,217.5 Z"/></g>
<g><path style="opacity:1" fill="#f9f9fa" d="M 349.5,219.5 C 355.5,218.833 361.5,218.167 367.5,217.5C 368.827,211.686 370.66,206.019 373,200.5C 375.143,206.428 376.977,212.428 378.5,218.5C 384.509,218.334 390.509,218.501 396.5,219C 391.527,222.31 386.86,225.977 382.5,230C 384.644,235.416 386.144,240.916 387,246.5C 382.323,243.152 377.656,239.819 373,236.5C 368.429,239.538 363.929,242.705 359.5,246C 358.833,246.667 358.167,246.667 357.5,246C 359.597,240.544 361.597,235.044 363.5,229.5C 359.094,225.754 354.427,222.42 349.5,219.5 Z"/></g>
<g><path style="opacity:1" fill="#f9f9fb" d="M 591.5,217.5 C 597.5,218.167 603.5,218.833 609.5,219.5C 604.573,222.42 599.906,225.754 595.5,229.5C 597.403,235.044 599.403,240.544 601.5,246C 600.833,246.667 600.167,246.667 599.5,246C 595.071,242.705 590.571,239.538 586,236.5C 581.344,239.819 576.677,243.152 572,246.5C 573.333,240.5 574.667,234.5 576,228.5C 571.5,225.333 567,222.167 562.5,219C 568.491,218.501 574.491,218.334 580.5,218.5C 582.023,212.428 583.857,206.428 586,200.5C 588.34,206.019 590.173,211.686 591.5,217.5 Z"/></g>
<g><path style="opacity:1" fill="#f9f8fa" d="M 165.5,217.5 C 171.167,218.167 176.833,218.833 182.5,219.5C 178.451,222.613 174.284,225.613 170,228.5C 170.552,234.339 172.052,240.005 174.5,245.5C 174.167,245.833 173.833,246.167 173.5,246.5C 169.112,242.779 164.445,239.445 159.5,236.5C 154.555,239.445 149.888,242.779 145.5,246.5C 145.167,246.167 144.833,245.833 144.5,245.5C 146.467,240.432 148.134,235.265 149.5,230C 145.599,226.038 141.266,222.538 136.5,219.5C 142.167,218.833 147.833,218.167 153.5,217.5C 155.298,212.108 157.298,206.775 159.5,201.5C 161.702,206.775 163.702,212.108 165.5,217.5 Z"/></g>
<g><path style="opacity:1" fill="#f9f8fa" d="M 485.5,217.5 C 491.167,218.167 496.833,218.833 502.5,219.5C 498.451,222.613 494.284,225.613 490,228.5C 490.552,234.339 492.052,240.005 494.5,245.5C 494.167,245.833 493.833,246.167 493.5,246.5C 489.112,242.779 484.445,239.445 479.5,236.5C 474.555,239.445 469.888,242.779 465.5,246.5C 465.167,246.167 464.833,245.833 464.5,245.5C 466.467,240.432 468.134,235.265 469.5,230C 465.599,226.038 461.266,222.538 456.5,219.5C 462.167,218.833 467.833,218.167 473.5,217.5C 475.298,212.108 477.298,206.775 479.5,201.5C 481.702,206.775 483.702,212.108 485.5,217.5 Z"/></g>
<g><path style="opacity:1" fill="#7e7d9f" d="M 47.5,217.5 C 41.5,218.167 35.5,218.833 29.5,219.5C 28.9569,219.44 28.6236,219.107 28.5,218.5C 34.7985,217.504 41.1318,217.17 47.5,217.5 Z"/></g>
<g><path style="opacity:1" fill="#7e7d9f" d="M 153.5,217.5 C 147.833,218.167 142.167,218.833 136.5,219.5C 135.957,219.44 135.624,219.107 135.5,218.5C 141.463,217.504 147.463,217.171 153.5,217.5 Z"/></g>
<g><path style="opacity:1" fill="#7f7e9f" d="M 165.5,217.5 C 171.537,217.171 177.537,217.504 183.5,218.5C 183.376,219.107 183.043,219.44 182.5,219.5C 176.833,218.833 171.167,218.167 165.5,217.5 Z"/></g>
<g><path style="opacity:1" fill="#7e7d9f" d="M 271.5,217.5 C 277.868,217.17 284.202,217.504 290.5,218.5C 290.376,219.107 290.043,219.44 289.5,219.5C 283.5,218.833 277.5,218.167 271.5,217.5 Z"/></g>
<g><path style="opacity:1" fill="#7e7d9f" d="M 367.5,217.5 C 361.5,218.167 355.5,218.833 349.5,219.5C 348.957,219.44 348.624,219.107 348.5,218.5C 354.798,217.504 361.132,217.17 367.5,217.5 Z"/></g>
<g><path style="opacity:1" fill="#7e7d9f" d="M 473.5,217.5 C 467.833,218.167 462.167,218.833 456.5,219.5C 455.957,219.44 455.624,219.107 455.5,218.5C 461.463,217.504 467.463,217.171 473.5,217.5 Z"/></g>
<g><path style="opacity:1" fill="#7f7e9f" d="M 485.5,217.5 C 491.537,217.171 497.537,217.504 503.5,218.5C 503.376,219.107 503.043,219.44 502.5,219.5C 496.833,218.833 491.167,218.167 485.5,217.5 Z"/></g>
<g><path style="opacity:1" fill="#7e7d9f" d="M 591.5,217.5 C 597.868,217.17 604.202,217.504 610.5,218.5C 610.376,219.107 610.043,219.44 609.5,219.5C 603.5,218.833 597.5,218.167 591.5,217.5 Z"/></g>
<g><path style="opacity:1" fill="#f8f8fa" d="M 105.5,246.5 C 108.658,251.633 110.658,257.3 111.5,263.5C 117.842,263.334 124.175,263.5 130.5,264C 125.322,267.422 120.322,271.089 115.5,275C 118.039,280.274 119.539,285.774 120,291.5C 115.333,288.167 110.667,284.833 106,281.5C 101.359,284.641 96.8591,287.974 92.5,291.5C 92.7336,286.087 94.067,280.753 96.5,275.5C 92.2944,271.13 87.6277,267.297 82.5,264C 88.4908,263.501 94.4908,263.334 100.5,263.5C 101.964,257.775 103.631,252.108 105.5,246.5 Z"/></g>
<g><path style="opacity:1" fill="#f8f8fa" d="M 212.5,246.5 C 215.269,251.801 217.269,257.468 218.5,263.5C 224.509,263.334 230.509,263.501 236.5,264C 231.61,267.605 226.943,271.438 222.5,275.5C 224.742,280.712 226.242,286.046 227,291.5C 222.333,288.167 217.667,284.833 213,281.5C 208.333,284.833 203.667,288.167 199,291.5C 199.461,285.774 200.961,280.274 203.5,275C 198.678,271.089 193.678,267.422 188.5,264C 194.825,263.5 201.158,263.334 207.5,263.5C 208.563,257.647 210.229,251.98 212.5,246.5 Z"/></g>
<g><path style="opacity:1" fill="#f8f8fa" d="M 425.5,246.5 C 428.658,251.633 430.658,257.3 431.5,263.5C 437.842,263.334 444.175,263.5 450.5,264C 445.322,267.422 440.322,271.089 435.5,275C 438.039,280.274 439.539,285.774 440,291.5C 435.333,288.167 430.667,284.833 426,281.5C 421.359,284.641 416.859,287.974 412.5,291.5C 412.734,286.087 414.067,280.753 416.5,275.5C 412.294,271.13 407.628,267.297 402.5,264C 408.491,263.501 414.491,263.334 420.5,263.5C 421.964,257.775 423.631,252.108 425.5,246.5 Z"/></g>
<g><path style="opacity:1" fill="#f8f8fa" d="M 532.5,246.5 C 535.269,251.801 537.269,257.468 538.5,263.5C 544.509,263.334 550.509,263.501 556.5,264C 551.61,267.605 546.943,271.438 542.5,275.5C 544.742,280.712 546.242,286.046 547,291.5C 542.333,288.167 537.667,284.833 533,281.5C 528.333,284.833 523.667,288.167 519,291.5C 519.461,285.774 520.961,280.274 523.5,275C 518.678,271.089 513.678,267.422 508.5,264C 514.825,263.5 521.158,263.334 527.5,263.5C 528.563,257.647 530.229,251.98 532.5,246.5 Z"/></g>
<g><path style="opacity:1" fill="#f8f7f9" d="M 318.5,246.5 C 319.497,246.47 320.164,246.97 320.5,248C 322.068,252.871 323.735,257.704 325.5,262.5C 331.472,263.33 337.472,263.83 343.5,264C 338.348,267.327 333.681,271.16 329.5,275.5C 331.543,281.113 333.043,286.779 334,292.5C 329.436,288.469 324.603,284.802 319.5,281.5C 314.397,284.802 309.564,288.469 305,292.5C 305.957,286.779 307.457,281.113 309.5,275.5C 305.319,271.16 300.652,267.327 295.5,264C 301.528,263.83 307.528,263.33 313.5,262.5C 315.575,257.276 317.242,251.942 318.5,246.5 Z"/></g>
<g><path style="opacity:1" fill="#b22234" d="M 639.5,258.5 C 959.5,258.5 1279.5,258.5 1599.5,258.5C 1599.5,280.167 1599.5,301.833 1599.5,323.5C 1279.5,323.5 959.5,323.5 639.5,323.5C 639.5,301.833 639.5,280.167 639.5,258.5 Z"/></g>
<g><path style="opacity:1" fill="#f8f8fa" d="M 58.5,308.5 C 64.1667,309.167 69.8333,309.833 75.5,310.5C 70.9777,313.594 66.6443,316.927 62.5,320.5C 64.933,325.753 66.2664,331.087 66.5,336.5C 62.2413,333.122 57.7413,330.122 53,327.5C 48.2587,330.122 43.7587,333.122 39.5,336.5C 39.337,330.952 40.6703,325.619 43.5,320.5C 39.3557,316.927 35.0223,313.594 30.5,310.5C 36.1667,309.833 41.8333,309.167 47.5,308.5C 48.8418,302.642 50.6751,296.976 53,291.5C 54.9893,297.126 56.8226,302.793 58.5,308.5 Z"/></g>
<g><path style="opacity:1" fill="#f8f8fa" d="M 271.5,308.5 C 277.167,309.167 282.833,309.833 288.5,310.5C 284.161,313.84 279.828,317.174 275.5,320.5C 278.33,325.619 279.663,330.952 279.5,336.5C 275.241,333.122 270.741,330.122 266,327.5C 261.174,330.582 256.508,333.916 252,337.5C 252.552,331.661 254.052,325.995 256.5,320.5C 252.356,316.927 248.022,313.594 243.5,310.5C 249.167,309.833 254.833,309.167 260.5,308.5C 262.23,302.809 264.063,297.143 266,291.5C 268.325,296.976 270.158,302.642 271.5,308.5 Z"/></g>
<g><path style="opacity:1" fill="#f8f8fa" d="M 378.5,308.5 C 384.167,309.167 389.833,309.833 395.5,310.5C 390.978,313.594 386.644,316.927 382.5,320.5C 384.933,325.753 386.266,331.087 386.5,336.5C 382.241,333.122 377.741,330.122 373,327.5C 368.259,330.122 363.759,333.122 359.5,336.5C 359.337,330.952 360.67,325.619 363.5,320.5C 359.356,316.927 355.022,313.594 350.5,310.5C 356.167,309.833 361.833,309.167 367.5,308.5C 368.842,302.642 370.675,296.976 373,291.5C 374.989,297.126 376.823,302.793 378.5,308.5 Z"/></g>
<g><path style="opacity:1" fill="#f8f8fa" d="M 591.5,308.5 C 597.167,309.167 602.833,309.833 608.5,310.5C 604.161,313.84 599.828,317.174 595.5,320.5C 598.33,325.619 599.663,330.952 599.5,336.5C 595.241,333.122 590.741,330.122 586,327.5C 581.174,330.582 576.508,333.916 572,337.5C 572.552,331.661 574.052,325.995 576.5,320.5C 572.356,316.927 568.022,313.594 563.5,310.5C 569.167,309.833 574.833,309.167 580.5,308.5C 582.23,302.809 584.063,297.143 586,291.5C 588.325,296.976 590.158,302.642 591.5,308.5 Z"/></g>
<g><path style="opacity:1" fill="#f7f7f9" d="M 164.5,307.5 C 170.074,309.453 176.074,310.12 182.5,309.5C 177.763,312.87 173.43,316.703 169.5,321C 171.644,326.416 173.144,331.916 174,337.5C 169.388,333.783 164.555,330.45 159.5,327.5C 154.554,330.603 149.72,333.937 145,337.5C 145.856,331.916 147.356,326.416 149.5,321C 148.899,319.395 147.899,318.062 146.5,317C 142.7,315.021 139.366,312.521 136.5,309.5C 142.926,310.12 148.926,309.453 154.5,307.5C 155.765,302.038 157.432,296.704 159.5,291.5C 161.568,296.704 163.235,302.038 164.5,307.5 Z"/></g>
<g><path style="opacity:1" fill="#f7f7f9" d="M 484.5,307.5 C 490.074,309.453 496.074,310.12 502.5,309.5C 497.763,312.87 493.43,316.703 489.5,321C 491.644,326.416 493.144,331.916 494,337.5C 489.388,333.783 484.555,330.45 479.5,327.5C 474.554,330.603 469.72,333.937 465,337.5C 465.856,331.916 467.356,326.416 469.5,321C 468.899,319.395 467.899,318.062 466.5,317C 462.7,315.021 459.366,312.521 456.5,309.5C 462.926,310.12 468.926,309.453 474.5,307.5C 475.765,302.038 477.432,296.704 479.5,291.5C 481.568,296.704 483.235,302.038 484.5,307.5 Z"/></g>
<g><path style="opacity:1" fill="#bebecf" d="M 47.5,308.5 C 41.8333,309.167 36.1667,309.833 30.5,310.5C 29.7109,310.217 29.0442,309.717 28.5,309C 34.8246,308.5 41.1579,308.334 47.5,308.5 Z"/></g>
<g><path style="opacity:1" fill="#b9b9cb" d="M 58.5,308.5 C 64.8421,308.334 71.1754,308.5 77.5,309C 76.9558,309.717 76.2891,310.217 75.5,310.5C 69.8333,309.833 64.1667,309.167 58.5,308.5 Z"/></g>
<g><path style="opacity:1" fill="#bfbfd0" d="M 154.5,307.5 C 148.926,309.453 142.926,310.12 136.5,309.5C 141.825,308.76 147.825,308.093 154.5,307.5 Z"/></g>
<g><path style="opacity:1" fill="#bfbfd0" d="M 164.5,307.5 C 171.175,308.093 177.175,308.76 182.5,309.5C 176.074,310.12 170.074,309.453 164.5,307.5 Z"/></g>
<g><path style="opacity:1" fill="#b8b8cb" d="M 260.5,308.5 C 254.833,309.167 249.167,309.833 243.5,310.5C 242.711,310.217 242.044,309.717 241.5,309C 247.825,308.5 254.158,308.334 260.5,308.5 Z"/></g>
<g><path style="opacity:1" fill="#bebecf" d="M 271.5,308.5 C 277.842,308.334 284.175,308.5 290.5,309C 289.956,309.717 289.289,310.217 288.5,310.5C 282.833,309.833 277.167,309.167 271.5,308.5 Z"/></g>
<g><path style="opacity:1" fill="#bebecf" d="M 367.5,308.5 C 361.833,309.167 356.167,309.833 350.5,310.5C 349.711,310.217 349.044,309.717 348.5,309C 354.825,308.5 361.158,308.334 367.5,308.5 Z"/></g>
<g><path style="opacity:1" fill="#b9b9cb" d="M 378.5,308.5 C 384.842,308.334 391.175,308.5 397.5,309C 396.956,309.717 396.289,310.217 395.5,310.5C 389.833,309.833 384.167,309.167 378.5,308.5 Z"/></g>
<g><path style="opacity:1" fill="#bfbfd0" d="M 474.5,307.5 C 468.926,309.453 462.926,310.12 456.5,309.5C 461.825,308.76 467.825,308.093 474.5,307.5 Z"/></g>
<g><path style="opacity:1" fill="#bfbfd0" d="M 484.5,307.5 C 491.175,308.093 497.175,308.76 502.5,309.5C 496.074,310.12 490.074,309.453 484.5,307.5 Z"/></g>
<g><path style="opacity:1" fill="#b8b8cb" d="M 580.5,308.5 C 574.833,309.167 569.167,309.833 563.5,310.5C 562.711,310.217 562.044,309.717 561.5,309C 567.825,308.5 574.158,308.334 580.5,308.5 Z"/></g>
<g><path style="opacity:1" fill="#bebecf" d="M 591.5,308.5 C 597.842,308.334 604.175,308.5 610.5,309C 609.956,309.717 609.289,310.217 608.5,310.5C 602.833,309.833 597.167,309.167 591.5,308.5 Z"/></g>
<g><path style="opacity:1" fill="#fefdfd" d="M 639.5,323.5 C 959.5,323.5 1279.5,323.5 1599.5,323.5C 1599.5,345.167 1599.5,366.833 1599.5,388.5C 1279.5,388.5 959.5,388.5 639.5,388.5C 639.5,366.833 639.5,345.167 639.5,323.5 Z"/></g>
<g><path style="opacity:1" fill="#f9f9fa" d="M 111.5,353.5 C 117.5,354.167 123.5,354.833 129.5,355.5C 124.408,358.424 119.742,361.924 115.5,366C 117.492,371.306 119.492,376.639 121.5,382C 116.35,379.405 111.35,376.238 106.5,372.5C 101.529,375.638 96.6958,378.972 92,382.5C 93.3333,376.5 94.6667,370.5 96,364.5C 91.5,361.333 87,358.167 82.5,355C 88.4908,354.501 94.4908,354.334 100.5,354.5C 102.023,348.428 103.857,342.428 106,336.5C 108.34,342.019 110.173,347.686 111.5,353.5 Z"/></g>
<g><path style="opacity:1" fill="#f9f9fb" d="M 189.5,355.5 C 195.5,354.833 201.5,354.167 207.5,353.5C 208.827,347.686 210.66,342.019 213,336.5C 215.143,342.428 216.977,348.428 218.5,354.5C 224.509,354.334 230.509,354.501 236.5,355C 231.527,358.31 226.86,361.977 222.5,366C 224.644,371.416 226.144,376.916 227,382.5C 222.323,379.152 217.656,375.819 213,372.5C 208.429,375.538 203.929,378.705 199.5,382C 198.833,382.667 198.167,382.667 197.5,382C 199.495,376.683 201.495,371.35 203.5,366C 199.258,361.924 194.592,358.424 189.5,355.5 Z"/></g>
<g><path style="opacity:1" fill="#f9f9fa" d="M 431.5,353.5 C 437.5,354.167 443.5,354.833 449.5,355.5C 444.408,358.424 439.742,361.924 435.5,366C 437.492,371.306 439.492,376.639 441.5,382C 436.35,379.405 431.35,376.238 426.5,372.5C 421.529,375.638 416.696,378.972 412,382.5C 413.333,376.5 414.667,370.5 416,364.5C 411.5,361.333 407,358.167 402.5,355C 408.491,354.501 414.491,354.334 420.5,354.5C 422.023,348.428 423.857,342.428 426,336.5C 428.34,342.019 430.173,347.686 431.5,353.5 Z"/></g>
<g><path style="opacity:1" fill="#f9f9fb" d="M 509.5,355.5 C 515.5,354.833 521.5,354.167 527.5,353.5C 528.827,347.686 530.66,342.019 533,336.5C 535.143,342.428 536.977,348.428 538.5,354.5C 544.509,354.334 550.509,354.501 556.5,355C 551.527,358.31 546.86,361.977 542.5,366C 544.644,371.416 546.144,376.916 547,382.5C 542.323,379.152 537.656,375.819 533,372.5C 528.429,375.538 523.929,378.705 519.5,382C 518.833,382.667 518.167,382.667 517.5,382C 519.495,376.683 521.495,371.35 523.5,366C 519.258,361.924 514.592,358.424 509.5,355.5 Z"/></g>
<g><path style="opacity:1" fill="#f8f8fa" d="M 325.5,353.5 C 331.167,354.167 336.833,354.833 342.5,355.5C 338.451,358.613 334.284,361.613 330,364.5C 330.552,370.339 332.052,376.005 334.5,381.5C 334.167,381.833 333.833,382.167 333.5,382.5C 329.112,378.779 324.445,375.445 319.5,372.5C 314.555,375.445 309.888,378.779 305.5,382.5C 305.167,382.167 304.833,381.833 304.5,381.5C 306.467,376.432 308.134,371.265 309.5,366C 305.599,362.038 301.266,358.538 296.5,355.5C 302.167,354.833 307.833,354.167 313.5,353.5C 315.298,348.108 317.298,342.775 319.5,337.5C 321.702,342.775 323.702,348.108 325.5,353.5 Z"/></g>
<g><path style="opacity:1" fill="#727196" d="M 111.5,353.5 C 117.868,353.17 124.202,353.504 130.5,354.5C 130.376,355.107 130.043,355.44 129.5,355.5C 123.5,354.833 117.5,354.167 111.5,353.5 Z"/></g>
<g><path style="opacity:1" fill="#727196" d="M 207.5,353.5 C 201.5,354.167 195.5,354.833 189.5,355.5C 188.957,355.44 188.624,355.107 188.5,354.5C 194.798,353.504 201.132,353.17 207.5,353.5 Z"/></g>
<g><path style="opacity:1" fill="#727196" d="M 313.5,353.5 C 307.833,354.167 302.167,354.833 296.5,355.5C 295.957,355.44 295.624,355.107 295.5,354.5C 301.463,353.504 307.463,353.171 313.5,353.5 Z"/></g>
<g><path style="opacity:1" fill="#727197" d="M 325.5,353.5 C 331.537,353.171 337.537,353.504 343.5,354.5C 343.376,355.107 343.043,355.44 342.5,355.5C 336.833,354.833 331.167,354.167 325.5,353.5 Z"/></g>
<g><path style="opacity:1" fill="#727196" d="M 431.5,353.5 C 437.868,353.17 444.202,353.504 450.5,354.5C 450.376,355.107 450.043,355.44 449.5,355.5C 443.5,354.833 437.5,354.167 431.5,353.5 Z"/></g>
<g><path style="opacity:1" fill="#727196" d="M 527.5,353.5 C 521.5,354.167 515.5,354.833 509.5,355.5C 508.957,355.44 508.624,355.107 508.5,354.5C 514.798,353.504 521.132,353.17 527.5,353.5 Z"/></g>
<g><path style="opacity:1" fill="#f8f7f9" d="M 52.5,382.5 C 55.2687,387.801 57.2687,393.468 58.5,399.5C 64.5092,399.334 70.5092,399.501 76.5,400C 71.6097,403.605 66.9431,407.438 62.5,411.5C 64.933,416.753 66.2664,422.087 66.5,427.5C 62.1409,423.974 57.6409,420.641 53,417.5C 48.3333,420.833 43.6667,424.167 39,427.5C 39.4609,421.774 40.9609,416.274 43.5,411C 38.6776,407.089 33.6776,403.422 28.5,400C 34.8246,399.5 41.1579,399.334 47.5,399.5C 48.5625,393.647 50.2292,387.98 52.5,382.5 Z"/></g>
<g><path style="opacity:1" fill="#f8f7f9" d="M 265.5,382.5 C 268.658,387.633 270.658,393.3 271.5,399.5C 277.842,399.334 284.175,399.5 290.5,400C 285.5,403.667 280.5,407.333 275.5,411C 278.039,416.274 279.539,421.774 280,427.5C 275.333,424.167 270.667,420.833 266,417.5C 261.359,420.641 256.859,423.974 252.5,427.5C 252.734,422.087 254.067,416.753 256.5,411.5C 252.294,407.13 247.628,403.297 242.5,400C 248.491,399.501 254.491,399.334 260.5,399.5C 261.964,393.775 263.631,388.108 265.5,382.5 Z"/></g>
<g><path style="opacity:1" fill="#f8f7f9" d="M 372.5,382.5 C 375.269,387.801 377.269,393.468 378.5,399.5C 384.509,399.334 390.509,399.501 396.5,400C 391.61,403.605 386.943,407.438 382.5,411.5C 384.933,416.753 386.266,422.087 386.5,427.5C 382.141,423.974 377.641,420.641 373,417.5C 368.333,420.833 363.667,424.167 359,427.5C 359.461,421.774 360.961,416.274 363.5,411C 358.678,407.089 353.678,403.422 348.5,400C 354.825,399.5 361.158,399.334 367.5,399.5C 368.563,393.647 370.229,387.98 372.5,382.5 Z"/></g>
<g><path style="opacity:1" fill="#f8f7f9" d="M 585.5,382.5 C 588.658,387.633 590.658,393.3 591.5,399.5C 597.842,399.334 604.175,399.5 610.5,400C 605.5,403.667 600.5,407.333 595.5,411C 598.039,416.274 599.539,421.774 600,427.5C 595.333,424.167 590.667,420.833 586,417.5C 581.359,420.641 576.859,423.974 572.5,427.5C 572.734,422.087 574.067,416.753 576.5,411.5C 572.294,407.13 567.628,403.297 562.5,400C 568.491,399.501 574.491,399.334 580.5,399.5C 581.964,393.775 583.631,388.108 585.5,382.5 Z"/></g>
<g><path style="opacity:1" fill="#f7f7f9" d="M 158.5,382.5 C 159.497,382.47 160.164,382.97 160.5,384C 162.068,388.871 163.735,393.704 165.5,398.5C 171.472,399.33 177.472,399.83 183.5,400C 178.348,403.327 173.681,407.16 169.5,411.5C 171.543,417.113 173.043,422.779 174,428.5C 169.436,424.469 164.603,420.802 159.5,417.5C 154.397,420.802 149.564,424.469 145,428.5C 145.957,422.779 147.457,417.113 149.5,411.5C 145.319,407.16 140.652,403.327 135.5,400C 141.528,399.83 147.528,399.33 153.5,398.5C 155.575,393.276 157.242,387.942 158.5,382.5 Z"/></g>
<g><path style="opacity:1" fill="#f7f7f9" d="M 478.5,382.5 C 479.497,382.47 480.164,382.97 480.5,384C 482.068,388.871 483.735,393.704 485.5,398.5C 491.472,399.33 497.472,399.83 503.5,400C 498.348,403.327 493.681,407.16 489.5,411.5C 491.543,417.113 493.043,422.779 494,428.5C 489.436,424.469 484.603,420.802 479.5,417.5C 474.397,420.802 469.564,424.469 465,428.5C 465.957,422.779 467.457,417.113 469.5,411.5C 465.319,407.16 460.652,403.327 455.5,400C 461.528,399.83 467.528,399.33 473.5,398.5C 475.575,393.276 477.242,387.942 478.5,382.5 Z"/></g>
<g><path style="opacity:1" fill="#b12233" d="M 639.5,388.5 C 959.5,388.5 1279.5,388.5 1599.5,388.5C 1599.5,409.833 1599.5,431.167 1599.5,452.5C 1279.5,452.5 959.5,452.5 639.5,452.5C 639.5,431.167 639.5,409.833 639.5,388.5 Z"/></g>
<g><path style="opacity:1" fill="#fefdfd" d="M -0.5,452.5 C 212.833,452.5 426.167,452.5 639.5,452.5C 959.5,452.5 1279.5,452.5 1599.5,452.5C 1599.5,474.167 1599.5,495.833 1599.5,517.5C 1066.17,517.5 532.833,517.5 -0.5,517.5C -0.5,495.833 -0.5,474.167 -0.5,452.5 Z"/></g>
<g><path style="opacity:1" fill="#b22234" d="M -0.5,517.5 C 532.833,517.5 1066.17,517.5 1599.5,517.5C 1599.5,539.167 1599.5,560.833 1599.5,582.5C 1066.17,582.5 532.833,582.5 -0.5,582.5C -0.5,560.833 -0.5,539.167 -0.5,517.5 Z"/></g>
<g><path style="opacity:1" fill="#fefdfe" d="M -0.5,582.5 C 532.833,582.5 1066.17,582.5 1599.5,582.5C 1599.5,604.167 1599.5,625.833 1599.5,647.5C 1066.17,647.5 532.833,647.5 -0.5,647.5C -0.5,625.833 -0.5,604.167 -0.5,582.5 Z"/></g>
<g><path style="opacity:1" fill="#b12233" d="M -0.5,647.5 C 532.833,647.5 1066.17,647.5 1599.5,647.5C 1599.5,668.833 1599.5,690.167 1599.5,711.5C 1066.17,711.5 532.833,711.5 -0.5,711.5C -0.5,690.167 -0.5,668.833 -0.5,647.5 Z"/></g>
<g><path style="opacity:1" fill="#fefdfd" d="M -0.5,711.5 C 532.833,711.5 1066.17,711.5 1599.5,711.5C 1599.5,733.167 1599.5,754.833 1599.5,776.5C 1066.17,776.5 532.833,776.5 -0.5,776.5C -0.5,754.833 -0.5,733.167 -0.5,711.5 Z"/></g>
<g><path style="opacity:1" fill="#b22334" d="M -0.5,776.5 C 532.833,776.5 1066.17,776.5 1599.5,776.5C 1599.5,798.167 1599.5,819.833 1599.5,841.5C 1066.17,841.5 532.833,841.5 -0.5,841.5C -0.5,819.833 -0.5,798.167 -0.5,776.5 Z"/></g>
</svg>
